<svg  viewBox="0 0 108 52" fill="none" xmlns="http://www.w3.org/2000/svg">
<g clip-path="url(#clip0_464_1949)">
<path d="M27.4897 8.64915C26.826 8.44106 25.9064 8.28463 25.2413 8.28463C23.2994 8.28463 22.6358 8.96201 22.1239 11.6744L21.8174 13.2903H26.0076L24.6282 20.5908H20.3874L16.9128 39.5732C15.4308 47.7089 11.0367 51.7244 4.49678 51.7244C3.06675 51.7244 1.43143 51.568 0 51.2551L2.09512 43.537C2.65757 43.6935 3.57717 43.8499 4.24086 43.8499C5.97742 43.8499 7.0517 43.2242 7.76601 39.3651L11.2405 20.5908H8.07255L9.50257 13.2903H12.6706L13.0277 11.2037C14.1526 4.53034 17.4739 0.566528 25.4958 0.566528C26.8246 0.566528 28.2546 0.671292 29.4808 0.98415L27.4883 8.65059L27.4897 8.64915Z" fill="#132024"/>
<path d="M34.7437 39.2087H25.5969L32.6992 1.14053H41.8461L34.7437 39.2101V39.2087Z" fill="#132024"/>
<path d="M55.8933 39.2086C55.8933 38.2184 55.8933 37.1219 56.0972 35.9236H56.0466C54.8204 38.3748 51.9084 39.8343 48.6883 39.8343C43.5785 39.8343 41.1262 36.1317 41.1262 31.855C41.1262 24.8674 47.3089 22.521 54.9737 22.521V21.8436C54.9737 20.3841 53.9008 19.81 50.9367 19.81C48.739 19.81 46.1334 20.4874 44.0903 21.426L42.6083 14.0724C45.3165 13.1855 49.2002 12.5598 52.5721 12.5598C61.7189 12.5598 64.375 15.7931 64.375 21.7905V33.6805C64.375 35.2965 64.375 37.2784 64.5789 39.2086H55.8933ZM54.9737 28.4136C50.8861 28.4136 49.8639 29.3005 49.8639 30.9165C49.8639 31.855 50.5276 32.6903 51.7551 32.6903C53.6463 32.6903 54.9737 31.0743 54.9737 29.3005V28.4136Z" fill="#132024"/>
<path d="M82.8107 22.0001C79.0803 21.0099 77.0372 22.7823 77.0372 28.362V39.2087H67.7385V13.2904H76.3229C76.3229 14.1773 76.2202 15.7416 76.067 17.1494H76.1176C77.5997 14.3337 79.8987 12.5082 83.2705 12.613L82.8107 22.0001Z" fill="#132024"/>
<path d="M92.7744 29.8215V30.4472C92.7744 31.855 93.4381 32.4808 96.1983 32.4808C98.6506 32.4808 101.359 31.9067 103.914 30.9165V38.0605C100.592 39.2072 96.8114 39.8329 93.3875 39.8329C85.9786 39.8329 83.7302 36.0255 83.7302 30.4988C83.7302 18.5572 91.5483 12.6646 98.6506 12.6646C106.315 12.6646 108.001 16.4719 108.001 19.6522C108.001 26.7446 101.409 29.665 92.7744 29.8215ZM97.679 19.6005C95.4306 19.6005 94.2044 21.9469 93.5914 23.9805C96.7087 23.9288 99.161 23.1984 99.161 20.9036C99.161 20.1215 98.7012 19.6005 97.679 19.6005Z" fill="#132024"/>
</g>
<defs>
<clipPath id="clip0_464_1949">
<rect width="108" height="51.1579" fill="white" transform="translate(0 0.566528)"/>
</clipPath>
</defs>
</svg>
